# xmcd
#
# Track frame offsets:
#	150
#	13782
#	33791
#	54847
#	70082
#	82304
#	95240
#	111225
#	134321
#	147429
#	171072
#
# Disc length: 2573 seconds
#
# Revision: 0
# Processed by: cddbd v1.4PL0 Copyright (c) Steve Scherf et al.
# Submitted via: dBpowerAMP V4.0
#
DISCID=970a0b0b
DTITLE=Agent Blue - Agent Blue
DYEAR=1900
DGENRE=Blues
TTITLE0=Just a little bit
TTITLE1=It's a blues thing
TTITLE2=Tumbleweed
TTITLE3=Jumpin from six to six
TTITLE4=Treat her right
TTITLE5=Wrap it up
TTITLE6=Little Sister
TTITLE7=Bad case of love
TTITLE8=Fly me to the moon
TTITLE9=Powerful stuff
TTITLE10=Agent Blue
EXTD=
EXTT0=
EXTT1=
EXTT2=
EXTT3=
EXTT4=
EXTT5=
EXTT6=
EXTT7=
EXTT8=
EXTT9=
EXTT10=
PLAYORDER=
